PathFileType	3	(X/Y/Z)	F:\ViconData\AntennenMessung\Messung1\Session1\ID09.trc
DataRate	CameraRate	NumFrames	NumMarkers	Units	OrigDataRate	OrigDataStartFrame	OrigNumFrames
120.0	120.0	4	70	mm	120.0	271	1082	
Frame#	Time	Ashort			Along			Atop			A4			Bshort			Blong			Btop			B4			Cshort			Clong			Ctop			C4			Dshort			Dlong			Dtop			D4			Eshort			Elong			Etop			E4			Fshort			Flong			Ftop			F4			Gshort			Glong			Gtop			G4			Hshort			Hlong			Htop			H4			I1			I2			I3			I4			I5			WandAshort			WandAlong			WandAtop			WandA4			WandA15			WandBshort			WandB4			WandB5			WandBtop			WandBlong			WandCshort			WandClong			WandCtop			WandC4			WandC5			Acenter			Aantenna			Bcenter			Bantenna			Ccenter			Cantenna			Dcenter			Dantenna			Ecenter			Eantenna			Fcenter			Fantenna			Gcenter			Gantenna			Hcenter			Hantenna			Icenter			Iantenna			
		X1	Y1	Z1	X2	Y2	Z2	X3	Y3	Z3	X4	Y4	Z4	X5	Y5	Z5	X6	Y6	Z6	X7	Y7	Z7	X8	Y8	Z8	X9	Y9	Z9	X10	Y10	Z10	X11	Y11	Z11	X12	Y12	Z12	X13	Y13	Z13	X14	Y14	Z14	X15	Y15	Z15	X16	Y16	Z16	X17	Y17	Z17	X18	Y18	Z18	X19	Y19	Z19	X20	Y20	Z20	X21	Y21	Z21	X22	Y22	Z22	X23	Y23	Z23	X24	Y24	Z24	X25	Y25	Z25	X26	Y26	Z26	X27	Y27	Z27	X28	Y28	Z28	X29	Y29	Z29	X30	Y30	Z30	X31	Y31	Z31	X32	Y32	Z32	X33	Y33	Z33	X34	Y34	Z34	X35	Y35	Z35	X36	Y36	Z36	X37	Y37	Z37	X38	Y38	Z38	X39	Y39	Z39	X40	Y40	Z40	X41	Y41	Z41	X42	Y42	Z42	X43	Y43	Z43	X44	Y44	Z44	X45	Y45	Z45	X46	Y46	Z46	X47	Y47	Z47	X48	Y48	Z48	X49	Y49	Z49	X50	Y50	Z50	X51	Y51	Z51	X52	Y52	Z52	X53	Y53	Z53	X54	Y54	Z54	X55	Y55	Z55	X56	Y56	Z56	X57	Y57	Z57	X58	Y58	Z58	X59	Y59	Z59	X60	Y60	Z60	X61	Y61	Z61	X62	Y62	Z62	X63	Y63	Z63	X64	Y64	Z64	X65	Y65	Z65	X66	Y66	Z66	X67	Y67	Z67	X68	Y68	Z68	X69	Y69	Z69	X70	Y70	Z70	
271	2.25	-1038.2177	214.49141	-1644.1279	-1109.3214	203.99762	-1599.3903	-1063.651	172.30255	-1625.5117	-1054.1218	262.19644	-1634.8995	-1352.8182	235.08559	1004.1406	-1281.325	227.1369	1052.7423	-1322.9473	193.9239	1020.9332	-1284.877	288.04907	1052.479	814.26117	187.46988	1209.5505	892.46722	179.46864	1177.8271	844.25598	145.7688	1198.1921	860.65112	292.99976	1167.2847	1115.725	209.54091	-1401.5465	1056.1675	194.1322	-1460.2032	1095.0671	162.40602	-1423.8538	1069.8192	238.79579	-1425.8423	-1204.5363	1685.9685	-1563.235	-1129.1401	1688.2751	-1606.0363	-1173.1398	1724.4041	-1581.9305	-1134.0424	1581.0426	-1603.7697	-1239.7242	1699.3242	1119.4844	-1309.3535	1698.8577	1071.9324	-1270.4893	1736.3977	1096.9113	-1244.9298	1593.8333	1106.2533	988.87262	1664.2454	1162.3353	955.95111	1702.4298	1181.3165	922.66022	1662.1281	1215.132	939.79413	1659.4188	1159.9524	999.14191	1668.5082	-1579.3671	1058.9093	1670.1815	-1518.5848	1025.0217	1708.0465	-1551.0789	1059.2714	1672.2032	-1585.4912	410.98932	1606.3601	-23.998556	411.47797	1608.0302	-108.10411	413.44489	1644.0405	-60.89912	444.18661	1605.103	-61.065517	363.63962	1610.1477	-61.263035																																														-1068.8123	209.97612	-1624.8781	-1074.1051	248.60983	-1624.2283	-1321.714	231.6274	1025.2855	-1320.4475	270.34967	1029.7555	847.34052	184.08553	1196.1322	850.46552	222.90408	1194.0453	1088.8105	202.57762	-1428.0537	1082.8406	240.90904	-1432.0614	-1171.899	1686.9669	-1581.7626	-1170.6074	1647.9886	-1581.5878	-1271.0465	1699.1144	1098.0933	-1271.6293	1660.1383	1099.329	953.69421	1705.0474	1182.6177	973.16913	1731.9807	1162.2136	1026.5396	1669.2751	-1551.504	1028.0653	1630.3074	-1551.9315	411.20801	1607.1075	-61.645527	408.8508	1568.1869	-62.43211
272	2.2583333	-1038.2174	214.43156	-1644.1295	-1109.3419	203.90257	-1599.4052	-1063.6686	172.18538	-1625.4989	-1054.1677	262.20139	-1634.9136	-1352.7875	235.10907	1004.127	-1281.3954	227.0742	1052.8118	-1322.8944	193.99835	1020.9119	-1285.043	287.9126	1052.5062	814.17914	187.45897	1209.5029	892.63739	179.19986	1178.6696	844.26312	145.74074	1198.2338	860.91272	292.84998	1167.8405	1115.7781	209.87509	-1401.7096	1056.1735	194.11331	-1460.2034	1095.0101	162.30611	-1423.8619	1069.8721	238.8139	-1425.833	-1204.5278	1685.9583	-1563.2274	-1129.1592	1688.2231	-1605.9685	-1173.1447	1724.4016	-1581.9414	-1134.0413	1581.0435	-1603.7676	-1239.7736	1699.3772	1119.4963	-1309.4243	1698.9822	1071.9794	-1270.49	1736.3953	1096.917	-1244.9333	1593.7775	1106.3076	988.87994	1664.2478	1162.3229	955.92963	1702.2924	1181.1904	922.27869	1662.3068	1214.9635	939.83801	1659.4196	1159.9382	999.13086	1668.5189	-1579.3868	1058.8964	1670.182	-1518.5925	1025.0198	1708.0455	-1551.0759	1059.2798	1672.15	-1585.3782	410.9798	1606.3419	-23.994907	411.46338	1608.0073	-108.09375	413.46234	1644.0424	-60.88736	444.15683	1605.08	-61.072369	363.63336	1610.167	-61.275173																																														-1068.8529	209.89641	-1624.8652	-1074.1637	248.52766	-1624.2163	-1321.681	231.60817	1025.3396	-1320.432	270.3208	1029.8971	847.55835	183.94519	1196.3851	850.90594	222.75586	1194.5073	1088.6818	202.70981	-1428.3008	1082.6823	241.01511	-1432.5089	-1171.8994	1686.9386	-1581.7306	-1170.6039	1647.9608	-1581.5115	-1271.1019	1699.1995	1098.1234	-1271.7434	1660.2251	1099.3877	953.36578	1705.2524	1182.6583	972.89429	1732.2302	1162.3646	1026.5378	1669.2815	-1551.5078	1028.064	1630.3137	-1551.9421	411.1962	1607.0872	-61.632149	408.80966	1568.1682	-62.416527
273	2.2666667	-1038.2167	214.52631	-1644.153	-1109.3718	204.0164	-1599.3766	-1063.5876	172.21523	-1625.5016	-1054.1427	262.19098	-1634.8793	-1352.8597	235.03142	1004.181	-1281.3435	227.0941	1052.7383	-1322.9563	193.9185	1020.9694	-1284.8668	288.04819	1052.4692	814.19739	187.48505	1209.5828	892.68457	179.33485	1178.693	844.25012	145.65486	1198.3306	860.67761	292.85071	1167.3352	1115.7261	209.60712	-1401.5536	1056.1508	194.15472	-1460.2053	1094.9907	162.3138	-1423.8507	1069.8591	238.73384	-1425.77	-1204.5842	1686.03	-1563.0958	-1129.1713	1688.3866	-1606.5229	-1173.1885	1724.3365	-1581.8496	-1133.7709	1581.0283	-1603.6261	-1239.7286	1699.321	1119.4833	-1309.3695	1698.8901	1071.9358	-1270.5099	1736.4191	1096.9213	-1244.887	1593.9805	1106.2386	988.87958	1664.2485	1162.3075	955.81519	1702.1979	1181.1003	922.23657	1662.3	1214.9935	939.84058	1659.4064	1159.9796	999.13086	1668.493	-1579.3726	1058.8982	1670.1675	-1518.5797	1025.0184	1708.0416	-1551.0762	1059.2755	1672.1545	-1585.368	410.97235	1606.3483	-24.004023	411.48041	1608.0161	-108.09389	413.45474	1644.0398	-60.902782	444.19302	1605.1052	-61.068375	363.62408	1610.1501	-61.274235																																														-1068.7972	210.00943	-1624.9092	-1074.1221	248.63947	-1624.3037	-1321.7291	231.57635	1025.3176	-1320.4673	270.29865	1029.7887	847.50415	184.02641	1196.4744	850.79584	222.84187	1194.5968	1088.7419	202.60806	-1428.1193	1082.7977	240.93793	-1432.1801	-1172.0217	1687.0475	-1581.847	-1170.8021	1648.0665	-1581.8445	-1271.0723	1699.127	1098.0831	-1271.6603	1660.1503	1099.2975	953.14502	1705.2625	1182.6179	972.57416	1732.2687	1162.2667	1026.5345	1669.2606	-1551.4984	1028.0581	1630.2927	-1551.923	411.19977	1607.0948	-61.649223	408.82431	1568.1752	-62.435566
274	2.275	-1038.2355	214.51949	-1644.156	-1109.3486	203.85085	-1599.377	-1063.5206	172.77795	-1625.8625	-1054.1826	262.18753	-1634.8943	-1352.8601	235.02908	1004.1577	-1281.3213	227.11346	1052.7834	-1322.9265	193.91005	1020.9564	-1284.7034	288.0643	1052.4062	814.2608	187.46283	1209.5159	892.224	178.58792	1179.1721	844.24579	145.70172	1198.1995	860.66345	292.96597	1167.3918	1115.7241	209.59818	-1401.5684	1056.1641	194.13562	-1460.1403	1094.9967	162.45055	-1423.9675	1069.8201	238.72243	-1425.8141	-1204.6055	1686.028	-1563.085	-1129.1696	1688.3864	-1606.5376	-1173.1483	1724.3853	-1581.9125	-1133.7649	1581.0361	-1603.6536	-1239.7733	1699.3961	1119.5094	-1309.3712	1698.9045	1071.9596	-1270.4799	1736.3905	1096.9139	-1245.0088	1593.6722	1106.4683	988.9173	1664.2971	1162.3103	955.8526	1702.2747	1181.1455	922.2207	1662.2549	1214.9584	939.81891	1659.4227	1159.9604	999.14172	1668.4924	-1579.3644	1058.8992	1670.1721	-1518.5844	1025.0182	1708.0292	-1551.0775	1059.2826	1672.1639	-1585.3826	410.97131	1606.3461	-24.002975	411.45718	1608.0099	-108.09336	413.44388	1644.0172	-60.890045	444.15771	1605.0806	-61.063198	363.59335	1610.186	-61.306202																																														-1068.5851	209.96632	-1625.045	-1073.8463	248.60048	-1624.1959	-1321.7245	231.584	1025.3208	-1320.489	270.30545	1029.8065	847.87622	183.63622	1196.4325	851.58783	222.41716	1194.6261	1088.6926	202.58047	-1428.1511	1082.6724	240.90529	-1432.1467	-1171.9657	1687.0483	-1581.886	-1170.7312	1648.0679	-1581.8583	-1271.0536	1699.1752	1098.1384	-1271.6544	1660.2008	1099.4209	953.23242	1705.2842	1182.6381	972.70477	1732.3024	1162.3441	1026.5376	1669.2625	-1551.4999	1028.0647	1630.2946	-1551.9243	411.18872	1607.0906	-61.633755	408.81183	1568.1709	-62.41761
